HIERARCHY
ROOT Hip
{
	OFFSET -0.132419 0.288342 0.276502
	CHANNELS 6 Xposition Yposition Zposition Xrotation Yrotation Zrotation
	JOINT LowerSpine
	{
		OFFSET -0.001241 0.144196 0.265285
		CHANNELS 6 Xposition Yposition Zposition Xrotation Yrotation Zrotation
		JOINT MiddleSpine
		{
			OFFSET -0.001474 -0.020368 0.236154
			CHANNELS 3 Xrotation Yrotation Zrotation
			JOINT Chest
			{
				OFFSET -0.001661 0.047212 0.295042
				CHANNELS 3 Xrotation Yrotation Zrotation
				JOINT Neck
				{
					OFFSET -0.004013 -0.013427 0.660187
					CHANNELS 6 Xposition Yposition Zposition Xrotation Yrotation Zrotation
					JOINT Head
					{
						OFFSET -0.002512 -0.115887 0.368582
						CHANNELS 3 Xrotation Yrotation Zrotation
						End Site
						{
							OFFSET -0.000331 -0.003687 0.053439
						}
					}
				}
				JOINT LClavicle
				{
					OFFSET 0.055648 -0.221334 0.629337
					CHANNELS 6 Xposition Yposition Zposition Xrotation Yrotation Zrotation
					JOINT LShoulder
					{
						OFFSET 0.350230 0.143325 0.099205
						CHANNELS 3 Xrotation Yrotation Zrotation
						JOINT LForearm
						{
							OFFSET 0.827190 0.005223 0.002337
							CHANNELS 3 Xrotation Yrotation Zrotation
							JOINT LHand
							{
								OFFSET 0.690020 0.002338 0.006322
								CHANNELS 3 Xrotation Yrotation Zrotation
								JOINT LFinger1
								{
									OFFSET 0.267123 -0.075801 0.022082
									CHANNELS 6 Xposition Yposition Zposition Xrotation Yrotation Zrotation
									JOINT LFinger11
									{
										OFFSET 0.100143 -0.016909 -0.024460
										CHANNELS 3 Xrotation Yrotation Zrotation
										JOINT LFinger12
										{
											OFFSET 0.068366 -0.011547 -0.016702
											CHANNELS 3 Xrotation Yrotation Zrotation
											End Site
											{
												OFFSET 0.050793 -0.007755 -0.015144
											}
										}
									}
								}
								JOINT LFinger2
								{
									OFFSET 0.271244 -0.008191 0.028371
									CHANNELS 6 Xposition Yposition Zposition Xrotation Yrotation Zrotation
									JOINT LFinger21
									{
										OFFSET 0.123684 0.000410 0.001119
										CHANNELS 3 Xrotation Yrotation Zrotation
										JOINT LFinger22
										{
											OFFSET 0.068559 0.000238 0.000639
											CHANNELS 3 Xrotation Yrotation Zrotation
											End Site
											{
												OFFSET 0.053456 -0.000056 -0.003451
											}
										}
									}
								}
								JOINT LFinger3
								{
									OFFSET 0.257256 0.059469 0.021940
									CHANNELS 6 Xposition Yposition Zposition Xrotation Yrotation Zrotation
									JOINT LFinger31
									{
										OFFSET 0.112283 0.006966 -0.004726
										CHANNELS 3 Xrotation Yrotation Zrotation
										JOINT LFinger32
										{
											OFFSET 0.063985 0.003982 -0.002672
											CHANNELS 3 Xrotation Yrotation Zrotation
											End Site
											{
												OFFSET 0.053153 0.002632 -0.006106
											}
										}
									}
								}
								JOINT LFinger4
								{
									OFFSET 0.239047 0.105136 -0.012581
									CHANNELS 6 Xposition Yposition Zposition Xrotation Yrotation Zrotation
									JOINT LFinger41
									{
										OFFSET 0.069163 0.019433 -0.013226
										CHANNELS 3 Xrotation Yrotation Zrotation
										JOINT LFinger42
										{
											OFFSET 0.050719 0.014259 -0.009682
											CHANNELS 3 Xrotation Yrotation Zrotation
											End Site
											{
												OFFSET 0.050543 0.011979 -0.013090
											}
										}
									}
								}
								JOINT LFinger0
								{
									OFFSET 0.055486 -0.040412 -0.043146
									CHANNELS 6 Xposition Yposition Zposition Xrotation Yrotation Zrotation
									JOINT LFinger01
									{
										OFFSET 0.103034 -0.076534 -0.036212
										CHANNELS 3 Xrotation Yrotation Zrotation
										JOINT LFinger02
										{
											OFFSET 0.067865 -0.048049 -0.025751
											CHANNELS 3 Xrotation Yrotation Zrotation
											End Site
											{
												OFFSET 0.042539 -0.028626 -0.015505
											}
										}
									}
								}
							}
						}
					}
				}
				JOINT RClavicle
				{
					OFFSET -0.064329 -0.221033 0.628614
					CHANNELS 6 Xposition Yposition Zposition Xrotation Yrotation Zrotation
					JOINT RShoulder
					{
						OFFSET -0.350746 0.145090 0.094998
						CHANNELS 3 Xrotation Yrotation Zrotation
						JOINT RForearm
						{
							OFFSET -0.827121 0.009331 -0.007635
							CHANNELS 3 Xrotation Yrotation Zrotation
							JOINT RHand
							{
								OFFSET -0.690026 0.005765 -0.001997
								CHANNELS 3 Xrotation Yrotation Zrotation
								JOINT RFinger1
								{
									OFFSET -0.267743 -0.074473 0.018860
									CHANNELS 6 Xposition Yposition Zposition Xrotation Yrotation Zrotation
									JOINT RFinger11
									{
										OFFSET -0.099924 -0.016412 -0.025666
										CHANNELS 3 Xrotation Yrotation Zrotation
										JOINT RFinger12
										{
											OFFSET -0.068216 -0.011208 -0.017529
											CHANNELS 3 Xrotation Yrotation Zrotation
											End Site
											{
												OFFSET -0.050644 -0.007503 -0.015756
											}
										}
									}
								}
								JOINT RFinger2
								{
									OFFSET -0.271604 -0.006843 0.025102
									CHANNELS 6 Xposition Yposition Zposition Xrotation Yrotation Zrotation
									JOINT RFinger21
									{
										OFFSET -0.123688 0.001024 -0.000373
										CHANNELS 3 Xrotation Yrotation Zrotation
										JOINT RFinger22
										{
											OFFSET -0.068560 0.000582 -0.000187
											CHANNELS 3 Xrotation Yrotation Zrotation
											End Site
											{
												OFFSET -0.053410 0.000210 -0.004095
											}
										}
									}
								}
								JOINT RFinger3
								{
									OFFSET -0.257204 0.060747 0.018838
									CHANNELS 6 Xposition Yposition Zposition Xrotation Yrotation Zrotation
									JOINT RFinger31
									{
										OFFSET -0.112182 0.007523 -0.006079
										CHANNELS 3 Xrotation Yrotation Zrotation
										JOINT RFinger32
										{
											OFFSET -0.063927 0.004299 -0.003443
											CHANNELS 3 Xrotation Yrotation Zrotation
											End Site
											{
												OFFSET -0.053061 0.002896 -0.006746
											}
										}
									}
								}
								JOINT RFinger4
								{
									OFFSET -0.238354 0.106321 -0.015459
									CHANNELS 6 Xposition Yposition Zposition Xrotation Yrotation Zrotation
									JOINT RFinger41
									{
										OFFSET -0.068902 0.019776 -0.014055
										CHANNELS 3 Xrotation Yrotation Zrotation
										JOINT RFinger42
										{
											OFFSET -0.050527 0.014510 -0.010290
											CHANNELS 3 Xrotation Yrotation Zrotation
											End Site
											{
												OFFSET -0.050321 0.012229 -0.013698
											}
										}
									}
								}
								JOINT RFinger0
								{
									OFFSET -0.055162 -0.040134 -0.043810
									CHANNELS 6 Xposition Yposition Zposition Xrotation Yrotation Zrotation
									JOINT RFinger01
									{
										OFFSET -0.102969 -0.076025 -0.037460
										CHANNELS 3 Xrotation Yrotation Zrotation
										JOINT RFinger02
										{
											OFFSET -0.067784 -0.047713 -0.026566
											CHANNELS 3 Xrotation Yrotation Zrotation
											End Site
											{
												OFFSET -0.042491 -0.028415 -0.016017
											}
										}
									}
								}
							}
						}
					}
				}
			}
		}
	}
	JOINT RThigh
	{
		OFFSET -0.307425 0.021328 0.116323
		CHANNELS 6 Xposition Yposition Zposition Xrotation Yrotation Zrotation
		JOINT RShin
		{
			OFFSET -0.014821 0.047183 -1.206422
			CHANNELS 3 Xrotation Yrotation Zrotation
			JOINT RFoot
			{
				OFFSET 0.007255 0.046277 -1.184505
				CHANNELS 3 Xrotation Yrotation Zrotation
				JOINT RToe
				{
					OFFSET 0.000185 -0.267156 -0.140828
					CHANNELS 3 Xrotation Yrotation Zrotation
					End Site
					{
						OFFSET -0.000120 -0.053526 -0.002092
					}
				}
			}
		}
	}
	JOINT LThigh
	{
		OFFSET 0.306097 0.019807 0.120030
		CHANNELS 6 Xposition Yposition Zposition Xrotation Yrotation Zrotation
		JOINT LShin
		{
			OFFSET 0.029600 0.047073 -1.206163
			CHANNELS 3 Xrotation Yrotation Zrotation
			JOINT LFoot
			{
				OFFSET 0.007255 0.046276 -1.184504
				CHANNELS 3 Xrotation Yrotation Zrotation
				JOINT LToe
				{
					OFFSET 0.000185 -0.267159 -0.140828
					CHANNELS 3 Xrotation Yrotation Zrotation
					End Site
					{
						OFFSET -0.000120 -0.053526 -0.002092
					}
				}
			}
		}
	}
}
MOTION
Frames: 4
Frame Time: 0.041667
-0.268455 -0.820078 2.307374 9.072385 2.801615 -8.911976 -0.001241 0.144196 0.265286 6.207948 1.598960 3.145015 6.207973 1.598988 3.145028 6.207955 1.598957 3.144995 -0.004013 -0.013427 0.660188 -0.960458 -0.656597 -0.223118 -0.404561 -1.395638 -0.103856 0.055648 -0.221334 0.629338 -2.129589 -4.474552 -0.146082 26.269546 57.990212 -30.422953 1.070197 1.470166 -46.128666 0.000000 0.000006 -0.000006 0.267123 -0.075801 0.022081 -0.000008 -0.000002 -0.000027 0.000012 0.000001 -0.000011 0.000001 0.000005 -0.000022 0.271243 -0.008191 0.028372 -0.000003 -0.000004 -0.000021 -0.000002 0.000004 -0.000006 0.000002 0.000002 -0.000001 0.257257 0.059469 0.021939 -0.000626 -0.000662 0.000019 0.000001 -0.000003 -0.000004 -0.000002 0.000007 0.000011 0.239048 0.105136 -0.012580 -0.000007 -0.000004 -0.000015 0.000001 -0.000008 0.000001 0.000004 0.000006 0.000007 0.055485 -0.040412 -0.043146 -0.000003 -0.000005 -0.000017 -0.000003 0.000003 0.000035 -0.000006 -0.000018 0.000026 -0.064329 -0.221033 0.628615 -0.077934 -12.050829 -0.480953 49.899897 -47.282442 50.857309 0.428824 -1.513498 40.541445 -0.000113 0.000012 0.000027 -0.267744 -0.074473 0.018860 -0.001601 0.000703 -0.000235 -0.000076 -0.000016 -0.000121 0.000054 -0.000063 0.000242 -0.271604 -0.006844 0.025102 -0.000001 -0.000004 -0.000050 0.000001 -0.000001 0.000029 -0.000008 -0.000016 -0.000089 -0.257205 0.060746 0.018838 0.000004 -0.000009 -0.000052 0.000003 -0.000006 -0.000016 0.000003 -0.000004 -0.000017 -0.238354 0.106321 -0.015459 0.000002 -0.000010 -0.000039 0.000003 -0.000007 -0.000032 -0.000010 -0.000005 -0.000028 -0.055162 -0.040135 -0.043810 -0.000020 -0.000003 -0.000077 0.000008 0.000022 -0.000004 0.000075 -0.000038 0.000351 -0.307425 0.021328 0.116323 -3.084900 -3.251767 1.157093 18.995567 -0.027443 0.120244 -10.962524 -0.545894 0.804521 -3.279704 0.009051 -0.019436 0.306097 0.019807 0.120030 -44.172841 -6.756946 -4.403626 15.800504 -0.025693 0.099414 0.635522 0.322952 -0.587719 0.000019 -0.000044 0.000000 
-0.255197 -0.901159 2.279523 10.028682 2.920130 -10.090233 -0.001241 0.144195 0.265285 6.843986 1.754890 3.390006 6.844005 1.754917 3.390021 6.844001 1.754889 3.389988 -0.004013 -0.013427 0.660187 -0.968121 -0.518165 -0.177733 -0.569770 -1.358309 -0.104265 0.055648 -0.221334 0.629337 -2.188776 -5.239489 -0.134957 26.219184 55.483280 -36.293621 0.973173 1.406548 -43.205547 0.000016 0.000011 -0.000003 0.267123 -0.075802 0.022082 -0.000000 -0.000000 -0.000018 0.000003 0.000000 -0.000009 -0.000002 0.000002 -0.000025 0.271243 -0.008192 0.028372 -0.000003 -0.000004 -0.000022 0.000002 0.000002 -0.000009 -0.000006 -0.000002 -0.000003 0.257257 0.059469 0.021939 -0.000676 -0.000721 0.000022 0.000005 -0.000002 -0.000013 -0.000000 0.000001 0.000005 0.239048 0.105135 -0.012580 0.000001 -0.000010 -0.000014 -0.000001 -0.000008 0.000001 -0.000009 0.000007 0.000011 0.055485 -0.040412 -0.043146 0.000003 -0.000010 -0.000021 -0.000006 0.000003 0.000032 0.000006 -0.000015 0.000024 -0.064330 -0.221033 0.628614 -0.076385 -11.908338 -0.475064 48.285199 -45.623239 54.730582 0.395802 -1.464355 39.088322 -0.000113 0.000013 0.000029 -0.267744 -0.074473 0.018860 -0.001758 0.000764 -0.000258 -0.000076 -0.000018 -0.000120 0.000057 -0.000056 0.000251 -0.271604 -0.006843 0.025101 -0.000008 -0.000003 -0.000051 -0.000005 0.000001 0.000030 -0.000004 -0.000015 -0.000081 -0.257205 0.060747 0.018838 -0.000011 -0.000007 -0.000048 0.000002 -0.000005 -0.000016 -0.000009 -0.000002 -0.000019 -0.238353 0.106321 -0.015459 -0.000007 -0.000007 -0.000039 0.000007 -0.000004 -0.000026 0.000002 -0.000013 -0.000038 -0.055162 -0.040135 -0.043810 -0.000024 0.000002 -0.000066 0.000010 0.000020 -0.000015 0.000078 -0.000034 0.000345 -0.307425 0.021328 0.116323 -1.455541 -2.568028 1.067561 17.745125 -0.026871 0.112114 -12.334777 -1.159165 1.713108 -3.281815 0.009061 -0.019451 0.306097 0.019806 0.120030 -45.656423 -7.339031 -4.595979 16.288744 -0.026044 0.102574 -0.764364 0.595182 -1.123538 0.000013 -0.000042 0.000002 
-0.237749 -0.985050 2.254206 11.669142 3.164926 -11.456204 -0.001241 0.144196 0.265286 7.400218 1.899335 3.597240 7.400245 1.899365 3.597255 7.400233 1.899337 3.597223 -0.004013 -0.013427 0.660188 -1.050846 -0.368336 -0.129929 -0.738341 -1.319172 -0.104115 0.055648 -0.221333 0.629337 -2.245528 -6.004927 -0.120569 25.331222 53.036675 -41.114378 0.885926 1.343383 -40.503923 0.000003 0.000006 -0.000004 0.267123 -0.075802 0.022081 0.000005 0.000002 -0.000012 0.000009 -0.000005 -0.000010 0.000005 0.000003 -0.000022 0.271243 -0.008191 0.028372 0.000008 -0.000001 -0.000013 0.000006 0.000003 -0.000007 0.000003 -0.000000 -0.000002 0.257257 0.059469 0.021939 -0.000736 -0.000786 0.000026 -0.000002 -0.000007 -0.000011 0.000008 0.000006 0.000005 0.239048 0.105136 -0.012580 0.000008 -0.000009 -0.000013 0.000010 -0.000004 0.000003 0.000005 0.000006 0.000009 0.055486 -0.040412 -0.043145 0.000011 0.000003 -0.000011 -0.000004 -0.000002 0.000028 -0.000007 -0.000018 0.000020 -0.064329 -0.221033 0.628614 -0.073786 -11.663545 -0.464954 46.185920 -44.250934 57.799328 0.402436 -1.475274 39.386795 -0.000111 0.000012 0.000025 -0.267744 -0.074473 0.018860 -0.001902 0.000835 -0.000272 -0.000067 -0.000018 -0.000122 0.000049 -0.000061 0.000245 -0.271604 -0.006843 0.025102 -0.000001 -0.000004 -0.000051 0.000001 -0.000003 0.000029 -0.000016 -0.000016 -0.000084 -0.257203 0.060747 0.018838 0.000005 -0.000009 -0.000051 0.000002 -0.000005 -0.000017 -0.000001 -0.000003 -0.000017 -0.238353 0.106321 -0.015459 0.000007 -0.000009 -0.000040 0.000012 -0.000002 -0.000024 -0.000004 -0.000012 -0.000036 -0.055161 -0.040134 -0.043810 -0.000020 -0.000004 -0.000079 0.000007 0.000031 -0.000000 0.000094 -0.000036 0.000349 -0.307425 0.021327 0.116323 0.285618 -1.926446 0.948772 14.919319 -0.024930 0.093796 -12.135825 -1.944255 2.891427 -3.884784 0.010779 -0.022985 0.306097 0.019807 0.120030 -47.974340 -8.379033 -5.046986 17.832587 -0.026979 0.112596 -1.402011 1.301669 -2.429062 0.000012 -0.000043 0.000001 
-0.215850 -1.072294 2.229985 13.743736 3.359697 -12.799761 -0.001241 0.144196 0.265285 8.046216 2.078367 3.824407 8.046245 2.078395 3.824415 8.046218 2.078365 3.824387 -0.004013 -0.013426 0.660188 -1.424926 -0.179667 -0.072183 -0.964380 -1.322379 -0.108468 0.055648 -0.221334 0.629338 -2.299660 -6.769530 -0.102966 23.652820 50.560352 -44.911052 0.838588 1.307234 -39.060366 0.000004 0.000011 -0.000003 0.267124 -0.075801 0.022081 -0.000001 0.000002 -0.000020 0.000009 0.000006 -0.000009 0.000001 0.000003 -0.000020 0.271243 -0.008191 0.028371 -0.000011 -0.000004 -0.000021 0.000004 -0.000001 -0.000006 0.000006 -0.000002 -0.000005 0.257258 0.059469 0.021939 -0.000814 -0.000852 0.000027 0.000002 -0.000000 -0.000010 0.000001 0.000002 0.000009 0.239047 0.105136 -0.012581 -0.000004 -0.000006 -0.000015 -0.000001 -0.000010 -0.000000 0.000003 0.000004 0.000010 0.055485 -0.040412 -0.043145 -0.000001 -0.000009 -0.000020 -0.000002 0.000005 0.000044 0.000003 -0.000015 0.000010 -0.064330 -0.221032 0.628615 -0.070398 -11.339346 -0.451615 43.400429 -43.012741 60.069963 0.424235 -1.508591 40.343827 -0.000110 0.000011 0.000027 -0.267743 -0.074473 0.018861 -0.002079 0.000905 -0.000289 -0.000069 -0.000020 -0.000114 0.000047 -0.000060 0.000247 -0.271604 -0.006844 0.025101 0.000007 -0.000005 -0.000049 -0.000002 -0.000001 0.000032 -0.000006 -0.000018 -0.000085 -0.257204 0.060746 0.018838 0.000002 -0.000009 -0.000052 -0.000003 -0.000005 -0.000019 -0.000005 -0.000003 -0.000021 -0.238353 0.106321 -0.015459 0.000010 -0.000006 -0.000041 0.000001 -0.000007 -0.000031 -0.000005 -0.000008 -0.000041 -0.055162 -0.040135 -0.043810 -0.000015 -0.000002 -0.000092 0.000006 0.000029 -0.000011 0.000071 -0.000054 0.000348 -0.307425 0.021328 0.116323 1.691719 -1.204680 0.817751 11.874508 -0.021829 0.074192 -10.880716 -2.629646 3.986288 -5.375877 0.015195 -0.031638 0.306097 0.019807 0.120030 -51.005705 -9.597591 -4.653011 20.778762 -0.028016 0.131774 -1.351028 2.225831 -4.093460 0.000017 -0.000040 -0.000000 
